<?xml version="1.0" standalone="no"?>
<!DOCTYPE svg PUBLIC "-//W3C//DTD SVG 1.1//EN" "http://www.w3.org/Graphics/SVG/1.1/DTD/svg11.dtd" >
<svg xmlns="http://www.w3.org/2000/svg">
<metadata>Generated by IcoMoon</metadata>
<defs>
<font id="preseguro-icons" horiz-adv-x="1024">
<font-face units-per-em="1024" ascent="1024" descent="0" />
<missing-glyph horiz-adv-x="1024" />
<glyph unicode="&#x20;" horiz-adv-x="0" d="" />
<glyph unicode="&#x41;" glyph-name="arrow" d="M819.4 920.32c0 0-103.36 103.68-103.36 103.68s-511.040-512-511.040-512c0 0 0 0 0 0s0 0 0 0 511.040-512 511.040-512c0 0 103.36 103.68 103.36 103.68s-407.36 408.32-407.36 408.32c0 0 407.36 408.32 407.36 408.32" />
<glyph unicode="&#x42;" glyph-name="404" d="M204.8 870.633c0-13.141 14.234-21.333 25.6-14.779 5.291 3.037 8.533 8.669 8.533 14.779 0 13.142-14.233 21.334-25.6 14.78-5.29-3.038-8.533-8.67-8.533-14.78M136.533 870.633c0-13.141 14.234-21.333 25.6-14.779 5.291 3.037 8.534 8.669 8.534 14.779 0 13.142-14.234 21.334-25.6 14.78-5.291-3.038-8.534-8.67-8.534-14.78M68.267 870.633c0-13.141 14.233-21.333 25.6-14.779 5.29 3.037 8.533 8.669 8.533 14.779 0 13.142-14.234 21.334-25.6 14.78-5.291-3.038-8.533-8.67-8.533-14.78M1006.933 785.3c0 0-989.866 0-989.866 0-9.421 0-17.067 7.646-17.067 17.067s7.646 17.066 17.067 17.066c0 0 989.866 0 989.866 0 9.421 0 17.067-7.646 17.067-17.066s-7.646-17.067-17.067-17.067c0 0 0 0 0 0M972.8 68.5c0 0-921.6 0-921.6 0-28.228 0-51.2 22.972-51.2 51.2 0 0 0 785.067 0 785.067 0 28.228 22.972 51.2 51.2 51.2 0 0 921.6 0 921.6 0 28.228 0 51.2-22.972 51.2-51.2 0 0 0-785.067 0-785.067 0-28.228-22.972-51.2-51.2-51.2 0 0 0 0 0 0M51.2 921.833c-9.421 0-17.067-7.68-17.067-17.066 0 0 0-785.067 0-785.067 0-9.387 7.646-17.067 17.067-17.067 0 0 921.6 0 921.6 0 9.421 0 17.067 7.68 17.067 17.067 0 0 0 785.067 0 785.067 0 9.386-7.646 17.066-17.067 17.066 0 0-921.6 0-921.6 0s0 0 0 0M802.133 239.167c-9.42 0-17.066 7.646-17.066 17.066 0 0 0 85.334 0 85.334s-119.467 0-119.467 0c-5.564 0-10.752 2.696-13.961 7.236s-3.993 10.342-2.116 15.565c0 0 85.334 238.933 85.334 238.933 2.423 6.793 8.874 11.332 16.076 11.332 0 0 51.2 0 51.2 0 9.421 0 17.067-7.646 17.067-17.066 0 0 0-221.867 0-221.867s17.067 0 17.067 0c9.42 0 17.066-7.646 17.066-17.067s-7.646-17.066-17.066-17.066c0 0-17.067 0-17.067 0s0-85.334 0-85.334c0-9.42-7.646-17.066-17.067-17.066 0 0 0 0 0 0M689.801 375.7c0 0 95.266 0 95.266 0s0 204.8 0 204.8c0 0-22.085 0-22.085 0s-73.181-204.8-73.181-204.8c0 0 0 0 0 0M324.267 239.167c-9.421 0-17.067 7.646-17.067 17.066 0 0 0 85.334 0 85.334s-119.467 0-119.467 0c-5.563 0-10.752 2.696-13.96 7.236-3.209 4.54-3.994 10.342-2.116 15.565 0 0 85.333 238.933 85.333 238.933 2.423 6.793 8.875 11.332 16.077 11.332 0 0 51.2 0 51.2 0 9.42 0 17.066-7.646 17.066-17.066 0 0 0-221.867 0-221.867s17.067 0 17.067 0c9.421 0 17.067-7.646 17.067-17.067s-7.646-17.066-17.067-17.066c0 0-17.067 0-17.067 0s0-85.334 0-85.334c0-9.42-7.646-17.066-17.066-17.066 0 0 0 0 0 0M211.934 375.7c0 0 95.266 0 95.266 0s0 204.8 0 204.8c0 0-22.084 0-22.084 0s-73.182-204.8-73.182-204.8c0 0 0 0 0 0M563.2 239.167c0 0-102.4 0-102.4 0-28.228 0-51.2 22.971-51.2 51.2 0 0 0 273.066 0 273.066 0 28.229 22.972 51.2 51.2 51.2 0 0 102.4 0 102.4 0 28.228 0 51.2-22.971 51.2-51.2 0 0 0-273.066 0-273.066 0-28.229-22.972-51.2-51.2-51.2 0 0 0 0 0 0M460.8 580.5c-9.421 0-17.067-7.68-17.067-17.067 0 0 0-273.066 0-273.066 0-9.387 7.646-17.067 17.067-17.067 0 0 102.4 0 102.4 0 9.421 0 17.067 7.68 17.067 17.067 0 0 0 273.066 0 273.066 0 9.387-7.646 17.067-17.067 17.067 0 0-102.4 0-102.4 0s0 0 0 0" />
<glyph unicode="&#x43;" glyph-name="menu-dots" d="M394 512c0-65.142 53.012-118.154 118.154-118.154s118.154 53.012 118.154 118.154c0 65.142-53.012 118.154-118.154 118.154s-118.154-53.012-118.154-118.154c0 0 0 0 0 0M394 118.154c0-65.142 53.012-118.154 118.154-118.154s118.154 53.012 118.154 118.154c0 65.142-53.012 118.154-118.154 118.154s-118.154-53.012-118.154-118.154c0 0 0 0 0 0M394 905.846c0-65.142 53.012-118.154 118.154-118.154s118.154 53.012 118.154 118.154c0 65.142-53.012 118.154-118.154 118.154s-118.154-53.012-118.154-118.154c0 0 0 0 0 0" />
<glyph unicode="&#x44;" glyph-name="padlock" d="M838.227 605.091c0 0 0 93.091 0 93.091 0 179.945-145.873 325.818-325.818 325.818s-325.818-145.873-325.818-325.818c0 0 0-93.091 0-93.091s-93.091 0-93.091 0c0 0 0-605.091 0-605.091s837.818 0 837.818 0c0 0 0 605.091 0 605.091s-93.091 0-93.091 0c0 0 0 0 0 0M279.682 698.182c0 128.326 104.401 232.727 232.727 232.727s232.727-104.401 232.727-232.727c0 0 0-93.091 0-93.091s-465.454 0-465.454 0c0 0 0 93.091 0 93.091s0 0 0 0M838.227 93.091c0 0-651.636 0-651.636 0s0 418.909 0 418.909c0 0 651.636 0 651.636 0s0-418.909 0-418.909c0 0 0 0 0 0M465.864 297.379c0 0 0-111.197 0-111.197s93.091 0 93.091 0c0 0 0 111.197 0 111.197 14.196 12.8 23.272 31.092 23.272 51.712 0 38.54-31.278 69.818-69.818 69.818s-69.818-31.278-69.818-69.818c0-20.62 9.076-38.912 23.273-51.712 0 0 0 0 0 0" />
<glyph unicode="&#x45;" glyph-name="check" d="M325.818 285.409c0 0-244.363 244.364-244.363 244.364s-81.455-81.455-81.455-81.455c0 0 325.818-325.818 325.818-325.818s698.182 698.182 698.182 698.182c0 0-81.455 81.454-81.455 81.454s-616.727-616.727-616.727-616.727c0 0 0 0 0 0" />
<glyph unicode="&#x46;" glyph-name="whatsapp" d="M873.132 875.184c-95.799 95.922-223.214 148.754-358.951 148.816-279.672 0-507.314-227.622-507.417-507.396-0.042-89.434 23.337-176.726 67.724-253.658 0 0-71.988-262.946-71.988-262.946s269.002 70.546 269.002 70.546c74.11-40.412 157.55-61.73 242.493-61.751 0 0 0.206 0 0.206 0s-0.020 0 0 0c279.651 0 507.294 227.643 507.417 507.417 0.042 135.572-52.688 263.070-148.486 358.972 0 0 0 0 0 0M514.181 94.48c0 0-0.165 0-0.165 0-75.675 0.041-149.887 20.371-214.646 58.806 0 0-15.406 9.125-15.406 9.125s-159.63-41.854-159.63-41.854c0 0 42.616 155.613 42.616 155.613s-10.031 15.963-10.031 15.963c-42.204 67.148-64.511 144.759-64.47 224.45 0.082 232.524 189.29 421.711 421.917 421.711 112.647-0.041 218.539-43.955 298.168-123.687 79.63-79.712 123.44-185.665 123.399-298.374-0.082-232.545-189.29-421.732-421.752-421.732 0 0 0 0 0 0M745.531 410.362c-12.688 6.344-75.016 37.014-86.633 41.236-11.617 4.243-20.082 6.365-28.527-6.344-8.445-12.688-32.75-41.236-40.145-49.701s-14.789-9.537-27.477-3.172c-12.667 6.344-53.532 19.732-101.957 62.925-37.693 33.615-63.131 75.139-70.525 87.827s-0.804 19.547 5.561 25.87c5.706 5.685 12.667 14.81 19.011 22.225 6.344 7.394 8.445 12.688 12.688 21.153 4.223 8.466 2.101 15.86-1.071 22.204s-28.527 68.755-39.093 94.151c-10.279 24.717-20.742 21.36-28.528 21.751-7.374 0.371-15.839 0.453-24.284 0.453-8.466 0-22.204-3.172-33.821-15.86-11.617-12.708-44.367-43.378-44.367-105.767 0-62.411 45.417-122.699 51.761-131.165s89.414-136.519 216.603-191.453c30.237-13.058 53.862-20.865 72.276-26.694 30.36-9.66 58.002-8.301 79.856-5.026 24.346 3.646 75.016 30.67 85.582 60.289s10.567 54.995 7.395 60.289c-3.172 5.293-11.638 8.465-24.305 14.809 0 0 0 0 0 0" />
<glyph unicode="&#x47;" glyph-name="add" d="M950.857 585.143c0 0-365.714 0-365.714 0s0 365.714 0 365.714c0 40.375-32.768 73.143-73.143 73.143s-73.143-32.768-73.143-73.143c0 0 0-365.714 0-365.714s-365.714 0-365.714 0c-40.375 0-73.143-32.768-73.143-73.143s32.768-73.143 73.143-73.143c0 0 365.714 0 365.714 0s0-365.714 0-365.714c0-40.375 32.768-73.143 73.143-73.143s73.143 32.768 73.143 73.143c0 0 0 365.714 0 365.714s365.714 0 365.714 0c40.375 0 73.143 32.768 73.143 73.143s-32.768 73.143-73.143 73.143c0 0 0 0 0 0" />
<glyph unicode="&#x48;" glyph-name="remove" d="M899.108 1024c0 0-387.108-387.108-387.108-387.108s-387.108 387.108-387.108 387.108c0 0-124.892-124.892-124.892-124.892s387.108-387.108 387.108-387.108c0 0-387.108-387.108-387.108-387.108s124.892-124.892 124.892-124.892c0 0 387.108 387.108 387.108 387.108s387.108-387.108 387.108-387.108c0 0 124.892 124.892 124.892 124.892s-387.108 387.108-387.108 387.108c0 0 387.108 387.108 387.108 387.108s-124.892 124.892-124.892 124.892" />
<glyph unicode="&#x49;" glyph-name="info" d="M461.3 256c0 0 102.4 0 102.4 0s0 307.2 0 307.2c0 0-102.4 0-102.4 0s0-307.2 0-307.2c0 0 0 0 0 0s0 0 0 0M512.5 1024c-281.6 0-512-230.4-512-512s230.4-512 512-512c281.6 0 512 230.4 512 512s-230.4 512-512 512c0 0 0 0 0 0s0 0 0 0M512.5 102.4c-225.28 0-409.6 184.32-409.6 409.6s184.32 409.6 409.6 409.6c225.28 0 409.6-184.32 409.6-409.6s-184.32-409.6-409.6-409.6c0 0 0 0 0 0s0 0 0 0M461.3 665.6c0 0 102.4 0 102.4 0s0 102.4 0 102.4c0 0-102.4 0-102.4 0s0-102.4 0-102.4c0 0 0 0 0 0s0 0 0 0" />
<glyph unicode="&#x4a;" glyph-name="whatsapp-full" d="M18.286 18.286c0 0 219.428 60.343 219.428 60.343 78.629-49.372 173.715-78.629 274.286-78.629 283.429 0 512 228.571 512 512s-228.571 512-512 512c-283.429 0-512-228.571-512-512 0-100.571 29.257-195.657 78.629-274.286 0 0-60.343-219.428-60.343-219.428s0 0 0 0M766.171 373.029c-34.742-73.143-98.742-82.286-98.742-82.286-54.858-10.972-124.343 12.8-179.2 38.4-78.629 36.571-146.286 95.086-192 170.057-20.115 34.743-38.4 74.971-40.229 113.371 0 0-7.314 64 54.857 115.2 5.486 3.658 10.972 5.486 18.286 5.486 0 0 27.428 0 27.428 0 10.972 0 21.943-7.314 25.6-18.286 0 0 42.058-102.4 42.058-102.4 3.657-10.971 1.828-21.942-5.486-31.085 0 0-27.429-29.257-27.429-29.257-9.143-9.143-9.143-21.943-3.657-32.915 1.829-3.657 5.486-9.143 10.972-14.628 32.914-43.886 76.8-76.8 126.171-98.743 7.314-3.657 12.8-5.486 18.286-7.314 12.8-3.658 23.771 1.828 31.085 10.971 0 0 21.943 32.914 21.943 32.914 5.486 9.143 16.457 14.629 27.429 12.8 0 0 109.714-16.457 109.714-16.457 10.972-1.828 20.114-10.971 23.772-21.943 0 0 7.314-27.428 7.314-27.428 3.657-3.657 3.657-10.972 1.828-16.457 0 0 0 0 0 0" />
<glyph unicode="&#xe900;" glyph-name="eye" d="M649.029 460.255c-4.871-11.041-10.982-21.402-18.11-30.888-27.198-36.279-69.599-59.579-117.237-59.579-74.47 0-148.944 56.316-148.944 142.153 0 85.84 66.691 155.44 148.944 155.44 82.256 0 148.948-69.599 148.948-155.44 0-9.904-4.875-31.912-13.601-51.686zM513.682 447.506c18.619 0 35.639 7.135 48.728 18.937 15.784 14.23 22.733 35.291 22.733 45.499 0 42.92-30.296 77.722-71.461 77.722-41.161 0-74.825-34.743-74.825-77.663 0-29.637 33.664-64.494 74.825-64.494zM39.94 502.038c-0.582 0.72 0.582-0.757 0 0-4.552 6.228-4.438 13.634 0.020 19.935 0.327 0.461 0.659 0.94 0.997 1.43 133.891 195.475 299.927 299.454 471.562 299.454 171.458 0 337.346-103.7 471.091-298.781 2.538-3.701 3.818-7.504 3.818-12.058 0-4.776-1.488-8.792-4.158-12.676-133.709-194.71-299.451-298.2-470.751-298.2-172.071 0-338.543 104.474-472.579 300.895zM144.058 535.68c-11.008-13.685-11.008-33.635 0-47.323 114.655-142.548 243.753-209.496 368.462-209.496 124.712 0 253.809 66.948 368.464 209.496 11.008 13.689 11.008 33.638 0 47.323-114.655 142.546-243.752 209.458-368.464 209.458-124.709 0-253.807-66.912-368.461-209.458z" />
<glyph unicode="&#xe901;" glyph-name="cutted-eye" d="M829.908 967.308l12.668-7.414c13.996-8.189 18.79-26.326 10.708-40.509l-482.765-847.551c-8.080-14.186-25.973-19.043-39.966-10.854l-12.669 7.413c-13.993 8.188-18.788 26.324-10.708 40.51l71.28 125.089c-123.295 40.397-239.717 136.51-338.516 283.264-4.551 6.312-4.438 13.82 0.022 20.206l0.464 0.673 0.531 0.779c133.891 198.132 299.926 303.526 471.562 303.526 63.879 0 126.983-14.59 187.944-43.124l89.479 157.139c8.079 14.183 25.973 19.043 39.965 10.854zM661.65 731.171c-49.616 21.844-99.716 32.492-149.131 32.492-124.709 0-253.807-67.822-368.462-212.308-11.007-13.872-11.007-34.092 0-47.963 85.944-108.31 180.002-173.557 274.246-199.446l49.28 86.521c-56.294 17.957-102.845 68.041-102.845 136.828 0 87.011 66.691 157.554 148.943 157.554 37.968 0 72.62-15.031 98.929-39.772l49.039 86.095zM571.941 573.67c-12.668 19.639-33.496 32.402-58.258 32.402-41.161 0-74.825-35.215-74.825-78.72 0-28.752 30.837-62.351 69.573-65.178l63.51 111.495zM537.136 212.988c162.516 9.556 318.841 113.642 446.139 301.535 2.666 3.935 4.155 8.005 4.155 12.848 0 4.615-1.28 8.47-3.818 12.222-48.922 72.331-102.148 132.266-158.369 179.197l-38.736-68.009c32.282-27.798 63.894-60.884 94.479-99.427 11.008-13.872 11.008-34.092 0-47.963-92.226-116.228-193.796-182.868-294.912-204.493l-48.936-85.91z" />
<glyph unicode="&#xe902;" glyph-name="pix" d="M484.8 439c10.8 10.8 29.4 10.8 40.2 0l154-154c28.4-28.4 66.2-44 106.2-44h30.2l-194.2-194.2c-60.6-59-159-59-219.6 0l-195 194.8h18.6c40 0 77.8 15.6 106.2 44l153.4 153.4zM525 586.2c-12.8-11-29.2-11.2-40.2 0l-153.4 153.4c-28.4 30.2-66.2 44-106.2 44h-18.6l194.8 194.88c60.8 60.692 159.2 60.692 219.8 0l194.4-194.28h-30.4c-40 0-77.8-15.6-106.2-44l-154-154zM225.2 738.6c27.6 0 53-11.2 74.2-30.8l153.4-153.4c14.4-12.6 33.2-21.6 52.2-21.6 18.8 0 37.6 9 52 21.6l154 154c19.6 19.4 46.6 30.6 74.2 30.6h75.4l116.6-116.6c60.6-60.6 60.6-159 0-219.6l-116.6-116.6h-75.4c-27.6 0-54.6 11.2-74.2 30.8l-154 154c-27.8 27.8-76.4 27.8-104.2-0.2l-153.4-153.2c-21.2-19.6-46.6-30.8-74.2-30.8h-63.64l-116.040 116c-60.692 60.6-60.692 159 0 219.6l116.040 116.2h63.64z" />
<glyph unicode="&#xe903;" glyph-name="credit-card" d="M904 832h-784c-31 0-55.8-25-56-56v0-528c0.4-31 25-56 56-56h784c31.2 0 56 25.4 56 56.6v0 526.8c0 31.2-24.8 56.6-56 56.6zM154.2 768h715.4c13.8 0 24.2-10.2 26.2-24v-40h-767.8v40.6c2 13.6 12.6 23.4 26.2 23.4zM869.8 256h-715.6c-13.8 0-24.2 9.8-26.2 23.4v232.6h768v-232c-2-13.8-12.6-24-26.2-24zM192 416h384v-32h-384v32zM192 352h192v-32h-192v32zM704 416h128v-96h-128v96z" />
<glyph unicode="&#xe904;" glyph-name="twitter-fill" d="M322.028 95.974c386.416 0 597.77 320.142 597.77 597.77 0 9.092 0 18.144-0.614 27.156 41.116 29.742 76.61 66.564 104.816 108.748-38.342-16.99-79.020-28.13-120.668-33.054 43.848 26.248 76.686 67.564 92.364 116.204-41.238-24.47-86.36-41.718-133.406-50.996-39.724 42.242-95.204 66.224-153.186 66.224-115.364 0-210.29-94.928-210.29-210.288 0-16.004 1.828-31.958 5.444-47.546-168.836 8.462-326.36 88.322-432.988 219.504-55.448-95.452-26.758-219.152 65.044-280.452-33.43 0.99-66.142 10.010-95.354 26.296v-2.662c0.028-99.628 70.894-186.222 168.55-205.948-30.928-8.434-63.386-9.666-94.862-3.604 27.454-85.37 106.622-144.216 196.28-145.9-74.38-58.454-166.314-90.206-260.916-90.112-16.716 0.032-33.416 1.044-50.012 3.032 96.068-61.65 207.88-94.36 322.028-94.208z" />
<glyph unicode="&#xe905;" glyph-name="facebook-fill" d="M898.892 1024c69.050 0 125.108-56.060 125.108-125.108v-773.784c0-69.048-56.060-125.108-125.108-125.108h-212.936v385.83h133.2l25.344 165.242h-158.544v107.234c0 45.206 22.146 89.272 93.16 89.272h72.084v140.68c0 0-65.42 11.164-127.964 11.164-130.576 0-215.92-79.138-215.92-222.408v-125.942h-145.146v-165.242h145.146v-385.83h-382.208c-69.048 0-125.108 56.060-125.108 125.108v773.784c0 69.048 56.058 125.108 125.108 125.108h773.784z" />
<glyph unicode="&#xe906;" glyph-name="twitter-flat" d="M954.352 751.893c-32.711-14.54-67.914-24.348-104.851-28.737 37.714 22.578 66.631 58.341 80.268 101.004-35.275-20.934-74.326-36.124-115.923-44.325-33.289 35.474-80.738 57.655-133.245 57.655-100.805 0-182.537-81.731-182.537-182.555 0-14.287 1.608-28.213 4.732-41.597-151.722 7.622-286.25 80.286-376.29 190.737-15.714-26.949-24.709-58.305-24.709-91.792 0-63.326 32.223-119.21 81.208-151.939-29.911 0.957-58.070 9.176-82.689 22.849-0.018-0.759-0.018-1.535-0.018-2.312 0-88.433 62.929-162.199 146.448-178.996-15.317-4.154-31.446-6.394-48.1-6.394-11.777 0-23.21 1.138-34.354 3.287 23.246-72.52 90.654-125.316 170.525-126.779-62.477-48.967-141.174-78.155-226.717-78.155-14.721 0-29.261 0.867-43.548 2.565 80.81-51.82 176.757-82.020 279.838-82.020 335.794 0 519.396 278.158 519.396 519.396 0 7.911-0.163 15.804-0.506 23.643 35.655 25.684 66.613 57.853 91.070 94.465z" />
<glyph unicode="&#xe907;" glyph-name="instagram-flat" d="M509.291 722.399c-126.42 0-231.168-102.942-231.168-231.168s102.942-231.168 231.168-231.168 231.168 104.748 231.168 231.168-104.748 231.168-231.168 231.168zM509.291 343.139c-81.27 0-148.092 66.822-148.092 148.092s66.822 148.092 148.092 148.092 148.092-66.822 148.092-148.092-66.822-148.092-148.092-148.092zM801.862 727.817c0-28.925-23.449-52.374-52.374-52.374s-52.374 23.449-52.374 52.374c0 28.925 23.449 52.374 52.374 52.374s52.374-23.449 52.374-52.374zM884.938 863.266c-46.956 48.762-113.778 74.046-189.63 74.046h-372.035c-157.122 0-261.869-104.748-261.869-261.869v-370.229c0-77.658 25.284-144.48 75.852-193.242 48.762-46.956 113.778-70.434 187.824-70.434h368.423c77.658 0 142.674 25.284 189.63 70.434 48.762 46.956 74.046 113.778 74.046 191.436v372.035c0 75.852-25.284 140.868-72.24 187.824zM877.714 303.407c0-55.986-19.866-101.136-52.374-131.838s-77.658-46.956-131.838-46.956h-368.423c-54.18 0-99.33 16.254-131.838 46.956-32.508 32.508-48.762 77.658-48.762 133.644v370.229c0 54.18 16.254 99.33 48.762 131.838 30.702 30.702 77.658 46.956 131.838 46.956h372.035c54.18 0 99.33-16.254 131.838-48.762 30.702-32.508 48.762-77.658 48.762-130.032v-372.035z" />
<glyph unicode="&#xe908;" glyph-name="facebook-flat" d="M730.255 631.346h-138.085v90.564c0 34.011 22.542 41.94 38.418 41.94 15.841 0 97.446 0 97.446 0v149.519l-134.202 0.524c-148.977 0-182.88-111.516-182.88-182.88v-99.667h-86.157v-154.071h86.157c0-197.727 0-435.967 0-435.967h181.218c0 0 0 240.588 0 435.967h122.281l15.804 154.071z" />
</font>
</defs>
</svg>
